<svg xmlns="http://www.w3.org/2000/svg" width="160" height="40" viewBox="0 0 160 40"><path d="M16.77,33.46l-1.38-3.92H7.12L5.76,33.46H2.28L9.34,14h3.84l7,19.47ZM8.18,26.53h6.16l-3.07-8.78Z" fill="#008265"/><path d="M24.08,23.37a1.21,1.21,0,0,0,.77,1.09,11.5,11.5,0,0,0,1.85.73l2.21.68a3.84,3.84,0,0,1,1.89,1.29A4,4,0,0,1,30,32.68a6.32,6.32,0,0,1-3.87,1.14A7,7,0,0,1,22.6,33a5.14,5.14,0,0,1-2.14-2.4l2.59-1.5a3,3,0,0,0,3.09,2c1.57,0,2.36-.52,2.36-1.56a1.24,1.24,0,0,0-.77-1.09,11.29,11.29,0,0,0-1.84-.75L23.68,27a4,4,0,0,1-1.9-1.25A3.42,3.42,0,0,1,21,23.45a3.77,3.77,0,0,1,1.46-3.09,5.61,5.61,0,0,1,3.63-1.17,6.11,6.11,0,0,1,3.07.77,5.21,5.21,0,0,1,2.07,2.12L28.72,23.5a2.63,2.63,0,0,0-2.61-1.58,2.63,2.63,0,0,0-1.45.37A1.2,1.2,0,0,0,24.08,23.37Z" fill="#008265"/><path d="M35.64,27.78a3.9,3.9,0,0,0,1.53,2.44,5,5,0,0,0,2.92.85,4.08,4.08,0,0,0,3.59-1.73l2.47,1.45a6.88,6.88,0,0,1-6.09,3,7.42,7.42,0,0,1-5.47-2.07,7.08,7.08,0,0,1-2.09-5.24,7.17,7.17,0,0,1,2.06-5.22,7.07,7.07,0,0,1,5.28-2.1,6.53,6.53,0,0,1,5,2.14,7.41,7.41,0,0,1,2,5.2,9.76,9.76,0,0,1-.11,1.25Zm0-2.44h8.17a4,4,0,0,0-1.4-2.56,4.09,4.09,0,0,0-2.58-.86,4.2,4.2,0,0,0-2.78.92A4.1,4.1,0,0,0,35.62,25.34Z" fill="#008265"/><path d="M51.91,21.89a4.25,4.25,0,0,1,4.28-2.59v3.26a4.41,4.41,0,0,0-3,.82,3.52,3.52,0,0,0-1.28,3.07v7h-3V19.56h3Z" fill="#008265"/><path d="M104.28,33.93a8.52,8.52,0,0,1-4.76-1.28,6.71,6.71,0,0,1-2.74-3.5l2.75-1.62a4.66,4.66,0,0,0,4.84,3.28,4.37,4.37,0,0,0,2.71-.7,2.24,2.24,0,0,0,.9-1.85,2,2,0,0,0-1-1.81,15,15,0,0,0-3.45-1.38l-2.24-.83a8.24,8.24,0,0,1-1.83-1,4,4,0,0,1-1.43-1.62,5.1,5.1,0,0,1-.48-2.28,5,5,0,0,1,1.84-4.1,6.72,6.72,0,0,1,4.42-1.52,7.33,7.33,0,0,1,4.09,1.14A7.51,7.51,0,0,1,110.62,18l-2.69,1.56a4.19,4.19,0,0,0-4.09-2.72,3.5,3.5,0,0,0-2.23.65,2.14,2.14,0,0,0-.83,1.77,2,2,0,0,0,.85,1.67,11.39,11.39,0,0,0,3.09,1.29l1.6.61,1.46.54a4.76,4.76,0,0,1,1.41.76,10.06,10.06,0,0,1,1,1,3.49,3.49,0,0,1,.76,1.35,6.47,6.47,0,0,1,.22,1.72,5.09,5.09,0,0,1-1.91,4.18A7.67,7.67,0,0,1,104.28,33.93Z" fill="#008265"/><path d="M120,19.3a5.12,5.12,0,0,1,3.87,1.53A5.81,5.81,0,0,1,125.3,25v8.54h-3V25.34a3.24,3.24,0,0,0-.83-2.39,3.08,3.08,0,0,0-2.28-.84,3.43,3.43,0,0,0-2.56,1,4.13,4.13,0,0,0-1,3v7.46h-3V14.1h3v7.34A4.76,4.76,0,0,1,120,19.3Z" fill="#008265"/><path d="M134,33.93a7.12,7.12,0,0,1-5.2-2.12,7,7,0,0,1-2.14-5.2,7,7,0,0,1,2.14-5.19,7.45,7.45,0,0,1,10.41,0,7,7,0,0,1,2.13,5.19,7,7,0,0,1-2.13,5.2A7.12,7.12,0,0,1,134,33.93Zm-3.09-4.17a4.43,4.43,0,0,0,6.17,0,4.25,4.25,0,0,0,1.25-3.15,4.24,4.24,0,0,0-1.25-3.14,4.43,4.43,0,0,0-6.17,0,4.58,4.58,0,0,0,0,6.29Z" fill="#008265"/><path d="M150.8,19.3a6.52,6.52,0,0,1,4.89,2.13,7.25,7.25,0,0,1,2,5.18,7.21,7.21,0,0,1-2,5.2,6.54,6.54,0,0,1-4.89,2.12,5.64,5.64,0,0,1-4.87-2.34v7.54h-3V19.66h3v2A5.62,5.62,0,0,1,150.8,19.3Zm-3.62,10.5a4.54,4.54,0,0,0,6.28,0,4.66,4.66,0,0,0,0-6.37,4.54,4.54,0,0,0-6.28,0,4.68,4.68,0,0,0,0,6.37Z" fill="#008265"/><path d="M75.71,37.06a1,1,0,0,1-.13-1.91l16.08-2.22L89.58,9.31l-3.5.47a1,1,0,1,1-.25-1.9l4.49-.61a1,1,0,0,1,1.09.87l2.24,25.53a1,1,0,0,1-.82,1l-17,2.35Z" fill="#fff"/><path d="M70.11,37.84a.92.92,0,0,1-.51-.15l-4.72-2.95-4.26-.35A1,1,0,0,1,60,34a1,1,0,0,1-.21-.72L62.69,7.2a1,1,0,0,1,.83-.84l7.16-.92a1,1,0,0,1,1.07.83,1,1,0,0,1-.83,1.08l-6.41.82L61.77,32.55l3.5.29a1,1,0,0,1,.43.14l3.44,2.16L69.1,11a1,1,0,0,1,.83-.95l15.9-2.12a1,1,0,0,1,.25,1.9L71,11.79l0,25.09a1,1,0,0,1-.5.84A.93.93,0,0,1,70.11,37.84Z" fill="#fff"/><path d="M74.85,11.34a.94.94,0,0,1-.37-.07A1,1,0,0,1,74,10c.14-.33,3.46-8.23,8.65-9.06A4,4,0,0,1,86,1.68,4.18,4.18,0,0,1,87.2,5a23.51,23.51,0,0,1-.65,3.37,1,1,0,0,1-1.86-.46A25.35,25.35,0,0,0,85.28,5a2.46,2.46,0,0,0-.58-1.86,2.17,2.17,0,0,0-1.79-.29c-2.09.33-3.91,2.4-5.07,4.09a23.71,23.71,0,0,0-2.11,3.81A1,1,0,0,1,74.85,11.34Z" fill="#fff"/></svg>